<?xml version="1.0" encoding="iso-8859-1"?>
<!-- Generator: Adobe Illustrator 19.0.0, SVG Export Plug-In . SVG Version: 6.00 Build 0)  -->
<svg version="1.1" id="Capa_1" xmlns="http://www.w3.org/2000/svg" xmlns:xlink="http://www.w3.org/1999/xlink" x="0px" y="0px"
	 viewBox="0 0 512 512" style="enable-background:new 0 0 512 512;" xml:space="preserve">
<g>
	<g>
		<path d="M212.923,165.538h-40.615v16.615h40.615c2.035,0,3.692-1.657,3.692-3.692v-9.231
			C216.615,167.196,214.958,165.538,212.923,165.538z"/>
	</g>
</g>
<g>
	<g>
		<path d="M212.923,211.692h-40.615v16.615h40.615c2.035,0,3.692-1.657,3.692-3.692v-9.231
			C216.615,213.349,214.958,211.692,212.923,211.692z"/>
	</g>
</g>
<g>
	<g>
		<path d="M344.615,64H44.308C19.876,64,0,83.876,0,108.308v177.231c0,24.431,19.876,44.308,44.308,44.308h39.385v64
			c0,5.447,2.998,10.452,7.8,13.022c2.184,1.17,4.578,1.748,6.968,1.748c2.865,0,5.723-0.833,8.193-2.481l114.434-76.288h0.451
			h123.077c24.431,0,44.308-19.876,44.308-44.308V182.154v-73.846C388.923,83.876,369.047,64,344.615,64z M246.154,178.462
			c0,6.826-2.072,13.177-5.616,18.462c3.545,5.284,5.616,11.635,5.616,18.462v9.231c0,18.323-14.908,33.231-33.231,33.231h-3.692
			v12.923c0,8.157-6.613,14.769-14.769,14.769s-14.769-6.613-14.769-14.769v-12.923h-22.154c-8.157,0-14.769-6.613-14.769-14.769
			v-92.308c0-8.157,6.613-14.769,14.769-14.769h22.154v-12.923c0-8.157,6.613-14.769,14.769-14.769s14.769,6.613,14.769,14.769V136
			h3.692c18.323,0,33.231,14.908,33.231,33.231V178.462z"/>
	</g>
</g>
<g>
	<g>
		<path d="M497.231,182.154h-78.769v103.385c0,40.719-33.127,73.846-73.846,73.846H230.031l-8.492,5.661v9.108
			c0,8.157,6.613,14.769,14.769,14.769h94.37l94.954,56.972c2.337,1.402,4.966,2.105,7.599,2.105c2.508,0,5.019-0.638,7.277-1.917
			c4.629-2.621,7.491-7.531,7.491-12.852v-44.308h49.231c8.157,0,14.769-6.613,14.769-14.769V196.923
			C512,188.767,505.387,182.154,497.231,182.154z"/>
	</g>
</g>
<g>
</g>
<g>
</g>
<g>
</g>
<g>
</g>
<g>
</g>
<g>
</g>
<g>
</g>
<g>
</g>
<g>
</g>
<g>
</g>
<g>
</g>
<g>
</g>
<g>
</g>
<g>
</g>
<g>
</g>
</svg>
