<?xml version="1.0" encoding="iso-8859-1"?>
<!-- Generator: Adobe Illustrator 19.0.0, SVG Export Plug-In . SVG Version: 6.00 Build 0)  -->
<svg version="1.1" id="Capa_1" xmlns="http://www.w3.org/2000/svg" xmlns:xlink="http://www.w3.org/1999/xlink" x="0px" y="0px"
	 viewBox="0 0 512 512" style="enable-background:new 0 0 512 512;" xml:space="preserve">
<path style="fill:#FF507F;" d="M497.231,182.154H374.154c-8.157,0-14.769,6.613-14.769,14.769v88.615
	c0,8.144-6.625,14.769-14.769,14.769H236.308c-8.157,0-14.769,6.613-14.769,14.769v59.077c0,8.157,6.613,14.769,14.769,14.769h94.37
	l94.954,56.972c2.337,1.402,4.966,2.105,7.599,2.105c2.508,0,5.019-0.638,7.277-1.917c4.629-2.621,7.491-7.531,7.491-12.852v-44.308
	h49.231c8.157,0,14.769-6.613,14.769-14.769V196.923C512,188.767,505.387,182.154,497.231,182.154z"/>
<path style="fill:#D8235B;" d="M497.231,182.154H374.154c-2.693,0-5.211,0.733-7.385,1.992v226.432l58.862,35.317
	c2.337,1.402,4.966,2.105,7.599,2.105c2.508,0,5.019-0.638,7.277-1.917c4.63-2.621,7.492-7.531,7.492-12.852v-44.308h49.231
	c8.157,0,14.769-6.613,14.769-14.769V196.923C512,188.767,505.387,182.154,497.231,182.154z"/>
<path style="fill:#FEDB41;" d="M344.615,64H44.308C19.876,64,0,83.876,0,108.308v177.231c0,24.431,19.876,44.308,44.308,44.308
	h39.385v64c0,5.447,2.998,10.452,7.8,13.022c2.184,1.17,4.578,1.748,6.968,1.748c2.865,0,5.723-0.833,8.193-2.481l114.434-76.288
	h123.528c24.431,0,44.308-19.876,44.308-44.308V108.308C388.923,83.876,369.047,64,344.615,64z"/>
<path style="fill:#EEBF00;" d="M344.615,64H194.462v283.597l26.626-17.751h123.528c24.431,0,44.308-19.876,44.308-44.308V108.308
	C388.923,83.876,369.047,64,344.615,64z"/>
<path style="fill:#E27726;" d="M246.154,169.231c0-18.323-14.908-33.231-33.231-33.231h-3.692v-12.923
	c0-8.157-6.613-14.769-14.769-14.769c-8.157,0-14.769,6.613-14.769,14.769V136h-22.154c-8.157,0-14.769,6.613-14.769,14.769v46.154
	v46.154c0,8.157,6.613,14.769,14.769,14.769h22.154v12.923c0,8.157,6.613,14.769,14.769,14.769c8.157,0,14.769-6.613,14.769-14.769
	v-12.923h3.692c18.323,0,33.231-14.908,33.231-33.231v-9.231c0-6.826-2.072-13.177-5.616-18.462
	c3.545-5.284,5.616-11.635,5.616-18.462V169.231z M172.308,165.538h40.615c2.035,0,3.692,1.657,3.692,3.692v9.231
	c0,2.035-1.657,3.692-3.692,3.692h-40.615V165.538z M216.615,224.615c0,2.035-1.657,3.692-3.692,3.692h-40.615v-16.615h40.615
	c2.035,0,3.692,1.657,3.692,3.692V224.615z"/>
<path style="fill:#9B5E34;" d="M212.923,165.538c2.035,0,3.692,1.657,3.692,3.692v9.231c0,2.035-1.657,3.692-3.692,3.692h-18.462
	v29.538h18.462c2.035,0,3.692,1.657,3.692,3.692v9.231c0,2.035-1.657,3.692-3.692,3.692h-18.462v57.231
	c8.157,0,14.769-6.613,14.769-14.769v-12.923h3.692c18.323,0,33.231-14.908,33.231-33.231v-9.231c0-6.826-2.072-13.177-5.616-18.462
	c3.545-5.284,5.616-11.635,5.616-18.462v-9.231c0-18.323-14.908-33.231-33.231-33.231h-3.692v-12.923
	c0-8.157-6.613-14.769-14.769-14.769v57.231H212.923z"/>
<g>
</g>
<g>
</g>
<g>
</g>
<g>
</g>
<g>
</g>
<g>
</g>
<g>
</g>
<g>
</g>
<g>
</g>
<g>
</g>
<g>
</g>
<g>
</g>
<g>
</g>
<g>
</g>
<g>
</g>
</svg>
